<svg width="600" height="400" viewBox="0 0 600 400" fill="none" xmlns="http://www.w3.org/2000/svg">
  <rect width="600" height="400" fill="#F9FAFB"/>
  <rect x="50" y="50" width="500" height="300" fill="#F3F4F6" stroke="#E5E7EB" stroke-width="2" stroke-dasharray="12 12"/>
  
  <!-- Grid of small artwork placeholders -->
  <rect x="80" y="80" width="80" height="80" fill="#E5E7EB" stroke="#D1D5DB" stroke-width="1"/>
  <rect x="180" y="80" width="80" height="80" fill="#E5E7EB" stroke="#D1D5DB" stroke-width="1"/>
  <rect x="280" y="80" width="80" height="80" fill="#E5E7EB" stroke="#D1D5DB" stroke-width="1"/>
  <rect x="380" y="80" width="80" height="80" fill="#E5E7EB" stroke="#D1D5DB" stroke-width="1"/>
  <rect x="480" y="80" width="80" height="80" fill="#E5E7EB" stroke="#D1D5DB" stroke-width="1"/>
  
  <rect x="80" y="180" width="80" height="80" fill="#E5E7EB" stroke="#D1D5DB" stroke-width="1"/>
  <rect x="180" y="180" width="80" height="80" fill="#E5E7EB" stroke="#D1D5DB" stroke-width="1"/>
  <rect x="280" y="180" width="80" height="80" fill="#E5E7EB" stroke="#D1D5DB" stroke-width="1"/>
  <rect x="380" y="180" width="80" height="80" fill="#E5E7EB" stroke="#D1D5DB" stroke-width="1"/>
  <rect x="480" y="180" width="80" height="80" fill="#E5E7EB" stroke="#D1D5DB" stroke-width="1"/>
  
  <rect x="80" y="280" width="80" height="80" fill="#E5E7EB" stroke="#D1D5DB" stroke-width="1"/>
  <rect x="180" y="280" width="80" height="80" fill="#E5E7EB" stroke="#D1D5DB" stroke-width="1"/>
  <rect x="280" y="280" width="80" height="80" fill="#E5E7EB" stroke="#D1D5DB" stroke-width="1"/>
  <rect x="380" y="280" width="80" height="80" fill="#E5E7EB" stroke="#D1D5DB" stroke-width="1"/>
  <rect x="480" y="280" width="80" height="80" fill="#E5E7EB" stroke="#D1D5DB" stroke-width="1"/>
  
  <text x="300" y="390" text-anchor="middle" fill="#6B7280" font-family="Arial, sans-serif" font-size="16">Category Placeholder</text>
</svg>